<svg width="20" height="20" viewBox="0 0 20 20" fill="none" xmlns="http://www.w3.org/2000/svg">
<rect opacity="0.01" x="0.525665" width="18.9559" height="18.9495" fill="black"/>
<path opacity="0.6" fill-rule="evenodd" clip-rule="evenodd" d="M14.3109 5.13546C14.0994 4.92395 13.7565 4.92395 13.545 5.13546L9.71673 8.9637L5.88693 5.1339C5.67549 4.92247 5.33269 4.92247 5.12125 5.1339C4.90982 5.34534 4.90982 5.68814 5.12125 5.89958L8.95105 9.72938L5.12281 13.5576C4.9113 13.7691 4.9113 14.112 5.12281 14.3236C5.33432 14.5351 5.67724 14.5351 5.88874 14.3236L9.71699 10.4953L13.5468 14.3251C13.7582 14.5365 14.101 14.5365 14.3125 14.3251C14.5239 14.1137 14.5239 13.7709 14.3125 13.5594L10.4827 9.72963L14.3109 5.90139C14.5224 5.68988 14.5224 5.34696 14.3109 5.13546Z" fill="white"/>
</svg>
